<svg id="catharticons-bluesky" aria-labelledby="catharticons-bluesky-title" width="18.113255" height="16" viewBox="0 0 18.115248 16" xmlns="http://www.w3.org/2000/svg"><title id="catharticons-bluesky-title">Bluesky icon</title><path d="m 3.927,1.076 c 2.077,1.564 4.311,4.736 5.131,6.438 v 4.495 c 0,-0.096 -0.037,0.012 -0.116,0.245 C 8.514,13.516 6.842,18.439 3.019,14.504 1.007,12.432 1.938,10.36 5.602,9.734 3.506,10.092 1.15,9.501 0.503,7.182 0.317,6.516 0,2.408 0,1.853 0,-0.926 2.428,-0.052 3.927,1.076 Z m 10.262,0 C 12.112,2.641 9.878,5.812 9.058,7.514 v 4.495 c 0,-0.096 0.037,0.012 0.116,0.245 0.428,1.261 2.1,6.184 5.922,2.249 2.013,-2.072 1.081,-4.144 -2.583,-4.769 2.096,0.358 4.452,-0.234 5.099,-2.552 0.186,-0.667 0.503,-4.775 0.503,-5.329 0,-2.779 -2.428,-1.905 -3.927,-0.777 z"/></svg>
