<svg id="catharticons-gitlab" aria-labelledby="catharticons-gitlab-title" width="17.3" height="16" viewBox="0 0 17.3 16" xmlns="http://www.w3.org/2000/svg"><title id="catharticons-gitlab-title">GitLab icon</title><path d="m17.252 8.9621-0.92134-2.8375c4.1e-4 1e-3 5.6e-4 3e-3 9.7e-4 4e-3 -4.6e-4 -1e-3 -7.1e-4 -3e-3 -1e-3 -4e-3 -5e-5 -1e-4 -5e-5 -1.5e-4 -5e-5 -2.5e-4v-1e-4l-1.829-5.6309c-0.10005-0.29663-0.37534-0.49571-0.69096-0.49326-0.31654 2e-3 -0.58428 0.19688-0.68218 0.4976l-1.7361 5.3448h-5.4779l-1.7394-5.3452c-0.0978-0.30046-0.36559-0.49566-0.68208-0.49729h-4e-3c-0.31164 0-0.58749 0.19785-0.68861 0.4978l-1.824 5.6259-2.6e-4 7.2e-4v1.5e-4c-4.6e-4 1e-3 -6.6e-4 3e-3 -1e-3 4e-3 4.1e-4 -1e-3 5.6e-4 -3e-3 9.7e-4 -4e-3l-0.92471 2.8377c-0.1391 0.42838 0.0118 0.89393 0.3757 1.1586l7.9845 5.8013c1e-3 8.7e-4 2e-3 1e-3 4e-3 2e-3 3e-3 2e-3 7e-3 5e-3 0.0102 7e-3 -3e-3 -2e-3 -6e-3 -5e-3 -0.01-7e-3 0 0 0-6e-5 -5e-5 -6e-5 5.1e-4 4.1e-4 1e-3 6.7e-4 2e-3 1e-3 4.6e-4 3e-4 9.2e-4 5.1e-4 1e-3 8.1e-4 5e-5 5e-5 1e-4 1e-4 2e-4 1.6e-4 0.0123 9e-3 0.0252 0.0164 0.0384 0.0236 2e-3 1e-3 3e-3 2e-3 5e-3 3e-3 5e-5 0 5e-5 5e-5 1e-4 5e-5 1e-3 5.6e-4 2e-3 1e-3 3e-3 2e-3 8.6e-4 4e-4 2e-3 6.6e-4 3e-3 1e-3 6.1e-4 3e-4 1e-3 5.1e-4 2e-3 7.6e-4 1e-3 7.2e-4 3e-3 1e-3 5e-3 2e-3 7e-3 3e-3 0.0142 6e-3 0.0214 9e-3 7e-3 3e-3 0.0132 6e-3 0.02 8e-3 3.1e-4 1e-4 5.6e-4 2.5e-4 8.7e-4 3.6e-4 1e-3 4e-4 2e-3 9.7e-4 3e-3 1e-3 1e-3 5.1e-4 3e-3 1e-3 4e-3 2e-3 5.7e-4 1.6e-4 1e-3 2.6e-4 2e-3 4.1e-4 2e-3 5.6e-4 4e-3 8.2e-4 6e-3 1e-3 6.7e-4 2e-4 1e-3 3.1e-4 2e-3 5.1e-4 0.01 3e-3 0.0196 5e-3 0.0295 7e-3 4e-3 8.7e-4 8e-3 2e-3 0.0115 3e-3 5.6e-4 1e-4 1e-3 3e-4 2e-3 4e-4 1e-3 2.6e-4 2e-3 7.2e-4 4e-3 9.2e-4 2e-3 3.6e-4 4e-3 1e-3 6e-3 1e-3 2e-3 2.6e-4 3e-3 1.5e-4 5e-3 4.1e-4 3.1e-4 5e-5 5.6e-4 0 8.7e-4 5e-5h2.5e-4c0.0188 3e-3 0.0379 5e-3 0.0574 5e-3h3.6e-4 1e-4 5e-5 1.5e-4c0.0195 0 0.0386-2e-3 0.0575-5e-3h2.1e-4c3e-4 -5e-5 6.1e-4 0 9.2e-4 -5e-5 2e-3 -2.6e-4 3e-3 -1.5e-4 5e-3 -4.1e-4 2e-3 -3.6e-4 4e-3 -9.7e-4 6e-3 -1e-3 1e-3 -2e-4 2e-3 -6.6e-4 4e-3 -9.2e-4 5.6e-4 -1e-4 1e-3 -3e-4 2e-3 -4e-4 4e-3 -7.7e-4 8e-3 -2e-3 0.0118-3e-3 0.01-2e-3 0.0195-4e-3 0.0291-7e-3 6.6e-4 -2e-4 1e-3 -2.5e-4 2e-3 -4.6e-4 2e-3 -5.6e-4 4e-3 -8.1e-4 6e-3 -1e-3 5.6e-4 -2e-4 1e-3 -2.5e-4 2e-3 -4e-4 1e-3 -4.6e-4 3e-3 -1e-3 4e-3 -2e-3 1e-3 -4e-4 2e-3 -9.7e-4 3e-3 -1e-3 3e-4 -1.1e-4 5.6e-4 -2.6e-4 8.7e-4 -3.6e-4 7e-3 -3e-3 0.0141-6e-3 0.0212-9e-3 7e-3 -3e-3 0.0133-5e-3 0.0197-8e-3 2e-3 -7.7e-4 3e-3 -1e-3 5e-3 -2e-3 6.2e-4 -3.1e-4 1e-3 -5.1e-4 2e-3 -8.2e-4 8.7e-4 -4.1e-4 2e-3 -6.6e-4 3e-3 -1e-3 1e-3 -6.2e-4 2e-3 -1e-3 3e-3 -2e-3 0 0 5e-5 0 5e-5 -5e-5 2e-3 -9.7e-4 4e-3 -2e-3 5e-3 -3e-3 0.0132-7e-3 0.0259-0.015 0.0382-0.0235 9.7e-4 -6.7e-4 2e-3 -1e-3 3e-3 -2e-3 2.5e-4 -2.1e-4 5.6e-4 -3.1e-4 8.1e-4 -5.1e-4 1e-3 -8.7e-4 3e-3 -1e-3 4e-3 -2e-3l7.9857-5.8014c0.36365-0.26452 0.5146-0.73007 0.3755-1.1584zm-3.4364-7.9418 1.5661 4.8216h-3.1322zm1.2918 5.637-0.63905 0.81884-4.7133 6.0391 2.2295-6.858zm-6.8439 9.061c4.1e-4 1e-3 1e-3 2e-3 1e-3 4e-3 -4.1e-4 -1e-3 -1e-3 -2e-3 -1e-3 -4e-3zm-0.71506-2.2026-5.3494-6.8584h3.123zm-4.0605-12.495 1.569 4.8217h-3.1322zm-2.5815 8.441c-0.0774-0.0563-0.10944-0.15569-0.0798-0.24696l0.68739-2.1095 5.0367 6.4575zm7.491 6.45c-2e-3 -1e-3 -3e-3 -3e-3 -5e-3 -4e-3 -3e-4 -2.6e-4 -6.1e-4 -6.1e-4 -9.7e-4 -8.7e-4 -3e-3 -3e-3 -6e-3 -5e-3 -9e-3 -8e-3 -6e-3 -5e-3 -0.0115-0.0102-0.017-0.0156 4.6e-4 4.1e-4 9.7e-4 7.7e-4 1e-3 1e-3 6.1e-4 5.7e-4 1e-3 1e-3 2e-3 2e-3 0.0117 0.0112 0.024 0.0217 0.0369 0.0314 1.6e-4 1e-4 2.6e-4 2.6e-4 4.1e-4 3.6e-4 6.1e-4 4.6e-4 1e-3 1e-3 2e-3 2e-3 -4e-3 -3e-3 -7e-3 -5e-3 -0.0107-8e-3zm0.25395-1.6384-1.3101-4.0357-1.1621-3.5799h4.9481zm0.26815 1.6258c-3e-3 3e-3 -6e-3 5e-3 -9e-3 8e-3 -3.5e-4 3.1e-4 -7.1e-4 6.7e-4 -1e-3 9.7e-4 -2e-3 1e-3 -3e-3 3e-3 -5e-3 4e-3 -3e-3 3e-3 -7e-3 5e-3 -0.0106 8e-3 6.1e-4 -4.6e-4 1e-3 -1e-3 2e-3 -1e-3l3e-4 -3e-4c0.0129-0.01 0.0251-0.0201 0.0367-0.0313 4.6e-4 -4.6e-4 1e-3 -8.1e-4 1e-3 -1e-3 6.1e-4 -5.6e-4 1e-3 -1e-3 2e-3 -2e-3 -5e-3 5e-3 -0.0111 0.0104-0.0167 0.0154zm7.4775-6.4375-5.6435 4.0999 5.0384-6.4557 0.68463 2.1086c0.0297 0.0917-2e-3 0.19107-0.0795 0.24722z"/></svg>
