<svg id="catharticons-globe" aria-labelledby="catharticons-globe-title" width="16" height="16" viewBox="0 0 16 16" xmlns="http://www.w3.org/2000/svg"><title id="catharticons-globe-title">Globe icon</title><path d="m7.69 16c-1.15-0.0627-2.11-0.295-3.09-0.756-1.09-0.508-2.09-1.3-2.85-2.24-0.91-1.14-1.48-2.48-1.68-3.93-0.06-0.444-0.0867-1.13-0.0573-1.56 0.096-1.43 0.533-2.74 1.31-3.92 1.21-1.84 3.13-3.1 5.3-3.47 0.497-0.0867 0.807-0.112 1.36-0.113 0.453 0 0.63 0.0133 1.01 0.056 2.32 0.287 4.4 1.59 5.69 3.55 1.15 1.75 1.57 3.87 1.16 5.94-0.197 1.01-0.604 2-1.17 2.86-0.977 1.48-2.42 2.59-4.09 3.16-0.635 0.217-1.24 0.343-1.93 0.402-0.208 0.0187-0.798 0.032-0.96 0.024zm-0.056-1.21c0-0.296-0.0133-0.981-0.0133-1.52l-0.0133-0.988-0.366-0.0133c-0.201 0-0.957-0.0133-1.68-0.0133h-1.31l0.0133 0.04c0.0267 0.0773 0.307 0.62 0.41 0.792 0.44 0.74 0.971 1.32 1.57 1.72 0.207 0.138 0.559 0.312 0.78 0.385 0.184 0.0613 0.484 0.131 0.57 0.132h0.0467zm0.809 0.511c0.0453-0.0133 0.136-0.028 0.201-0.0453 0.601-0.162 1.13-0.483 1.65-1 0.486-0.486 0.853-1.02 1.21-1.76 0.052-0.111 0.096-0.202 0.0933-0.203-0.0012-0.0012-0.753 0-1.67-0.0133l-1.67-0.0133 0.0133 1.17c0 0.644 0.0133 1.33 0.0147 1.53l0.0133 0.355h0.0333c0.0173 0 0.0693-0.0133 0.115-0.02zm2.42-0.537c1.08-0.459 2.05-1.18 2.81-2.1 0.112-0.134 0.269-0.341 0.269-0.354 0 0-0.366-0.0133-0.813-0.0133h-0.813l-0.0427 0.0973c-0.319 0.734-0.689 1.36-1.1 1.87-0.133 0.162-0.384 0.438-0.476 0.522-0.0987 0.0907-0.0973 0.0907 0.173-0.024zm-5.85-0.149c-0.425-0.442-0.802-0.98-1.13-1.62-0.116-0.226-0.27-0.556-0.319-0.687l-0.0227-0.06h-0.516c-0.284 0-0.63 0-0.769-0.0133h-0.255c0 0.0173 0.215 0.3 0.371 0.488 0.172 0.207 0.679 0.714 0.882 0.885 0.427 0.354 0.871 0.651 1.33 0.89 0.201 0.104 0.56 0.275 0.582 0.276 0 0-0.0653-0.076-0.157-0.171zm9.44-3.11c0.478-0.882 0.767-1.84 0.862-2.85 0.0133-0.116 0.0187-0.212 0.016-0.215 0-0.0012-0.502 0-1.11-0.0133h-1.11l-0.0133 0.133c-0.0613 1.09-0.227 2.06-0.505 2.93-0.024 0.0747-0.0427 0.141-0.0427 0.148 0 0.0133 0.3 0.0133 0.909 0.0133h0.907zm-2.56 0.0693c0.314-0.901 0.505-1.92 0.565-3l0.0133-0.146-1.29-0.0133c-0.709 0-1.66-0.0133-2.11-0.0133-0.778 0-0.824 0.0012-0.821 0.0227 0 0.0133 0.0133 0.734 0.0133 1.61l0.0133 1.58h0.748c0.412 0.0012 1.22 0 1.8 0h1.06zm-4.28-0.267c0-1.45-0.0187-2.9-0.032-2.91-0.0133 0-0.947-0.0133-2.09-0.0133l-2.07-0.0133 0.0133 0.129c0.0653 1.12 0.213 1.96 0.511 2.89l0.0627 0.197h0.272c1.39 0.0133 2.98 0.0187 3.14 0.0187l0.198-0.0012zm-4.31 0.276s-0.016-0.064-0.036-0.128c-0.249-0.787-0.423-1.76-0.478-2.65-0.0133-0.12-0.016-0.265-0.02-0.321l-0.0133-0.101-0.527-0.0133c-0.291 0-0.764-0.0133-1.05-0.0133h-0.522l0.0133 0.148c0.0373 0.57 0.167 1.21 0.361 1.8 0.124 0.375 0.233 0.637 0.408 0.985l0.139 0.276h0.363c0.707 0.0133 1.36 0.0133 1.36 0zm12-3.89c0-0.048-0.0133-0.142-0.0133-0.211-0.044-0.775-0.27-1.7-0.599-2.44-0.084-0.192-0.334-0.685-0.354-0.701-0.0133 0-0.422-0.0133-0.92-0.016-0.906 0-0.908 0-0.9 0.0213 0 0.0133 0.0267 0.084 0.0507 0.157 0.284 0.893 0.471 2.01 0.502 3l0.0133 0.262h0.164 1.12 0.951zm-2.89-0.178c-0.0333-1-0.225-2.08-0.528-2.99-0.0373-0.112-0.0707-0.207-0.0733-0.208 0 0-0.824-0.0133-1.83-0.0133l-1.82-0.0133 0.0133 0.802c0 0.44 0.0133 1.22 0.0147 1.73l0.0133 0.926h1.22 2.11 0.89zm-4.88-0.719c0-0.52-0.0133-1.3-0.0147-1.73l-0.0133-0.782h-0.724c-0.398 0-1.19 0-1.76-0.0133l-1.03-0.0133-0.0853 0.256c-0.311 0.947-0.486 1.93-0.531 2.99l-0.0133 0.205h0.783c0.43 0.0012 1.37 0 2.09 0h1.3zm-4.81 0.715c0.0427-1.06 0.222-2.11 0.517-3.04 0.032-0.0987 0.0547-0.184 0.0493-0.188 0 0-0.382-0.0133-0.838-0.0133h-0.832l-0.096 0.176c-0.516 0.932-0.821 1.97-0.9 3.06 0 0.096-0.0133 0.186-0.0133 0.197 0 0.0213 0.0427 0.0227 0.675 0.0267 0.37 0.0012 0.845 0 1.05 0h0.378zm11.2-3.85c-0.0253-0.0427-0.176-0.236-0.311-0.399-0.186-0.225-0.646-0.688-0.874-0.878-0.506-0.425-1.04-0.769-1.63-1.05-0.173-0.0813-0.476-0.209-0.494-0.209 0 0 0.032 0.0413 0.084 0.092 0.107 0.103 0.346 0.368 0.469 0.517 0.387 0.474 0.767 1.11 1.04 1.74l0.08 0.186h0.245 0.82c0.457 0 0.573-0.0012 0.566-0.0133zm-2.34 0s-0.04-0.0827-0.0827-0.172c-0.231-0.487-0.525-0.953-0.866-1.38-0.147-0.182-0.556-0.587-0.724-0.718-0.424-0.331-0.847-0.548-1.29-0.663-0.121-0.0307-0.373-0.0747-0.428-0.0747-0.0187 0-0.02 0.121-0.0133 1.32 0 0.725 0.0133 1.4 0.0147 1.5l0.0133 0.179h1.03 1.69c0.368 0 0.666-0.0012 0.664 0zm-4.04-0.282c0-0.147-0.0133-0.814-0.0133-1.48l-0.0133-1.21-0.0587 0.0133c-0.23 0.0307-0.59 0.152-0.867 0.292-0.357 0.182-0.689 0.428-1.02 0.763-0.458 0.457-0.811 0.956-1.15 1.63l-0.125 0.251h0.531c0.292 0 1.03 0.0133 1.63 0.0133h1.09zm-3.87 0.0467c0.188-0.421 0.407-0.818 0.639-1.17 0.255-0.38 0.442-0.614 0.728-0.906 0.076-0.0773 0.134-0.142 0.131-0.142 0 0-0.0813 0.032-0.169 0.0707-1.1 0.486-2.11 1.29-2.84 2.24l-0.076 0.1h0.462c0.253 0.0012 0.591 0 0.748 0h0.287z"/></svg>
