<svg id="catharticons-pin" aria-labelledby="catharticons-pin-title" width="12.422" height="16" viewBox="0 0 12.422 16" xmlns="http://www.w3.org/2000/svg"><title id="catharticons-pin-title">Pin icon</title><path d="m5.7901 0.0141c-1.9987 0.13893-3.7983 1.2224-4.8564 2.9257-0.30987 0.4984-0.55307 1.0515-0.70667 1.6087-0.40747 1.4789-0.2632 3.0433 0.40747 4.402 0.2552 0.51707 0.49693 0.88187 0.90307 1.3628 0.045333 0.05467 1.006 1.3039 2.1323 2.7748 1.2265 1.6019 2.0775 2.7015 2.1216 2.7415 0.24853 0.2272 0.59053 0.2272 0.83907 0 0.044-0.04 0.89507-1.1396 2.1215-2.7415 1.1263-1.4709 2.0869-2.72 2.1323-2.7748 0.40614-0.48093 0.648-0.84574 0.9032-1.3628 0.75614-1.5324 0.84027-3.3427 0.2324-4.9364-0.4716-1.2332-1.2919-2.2565-2.4021-2.9953-1.1021-0.73347-2.4903-1.0969-3.8276-1.0047zm0.7468 3.0113c0.29933 0.038667 0.53173 0.108 0.80294 0.2404 0.7388 0.35813 1.2439 1.01 1.4189 1.8357 0.033333 0.15493 0.036 0.19373 0.037333 0.48893 0 0.35667-0.013333 0.46093-0.093334 0.74147-0.2152 0.74947-0.78293 1.3788-1.5097 1.674-0.26853 0.10933-0.4876 0.1604-0.79094 0.18573-0.3928 0.033333-0.79227-0.030667-1.1729-0.18573-0.7268-0.2952-1.2947-0.92454-1.5097-1.674-0.08-0.28053-0.093334-0.3848-0.093334-0.74147 0-0.2952 0-0.334 0.037333-0.48893 0.1496-0.70414 0.5424-1.2893 1.1249-1.6727 0.23653-0.15507 0.58387-0.30333 0.85107-0.36213 0.2792-0.061334 0.62387-0.077334 0.89774-0.041333z"/></svg>
