<svg id="catharticons-youtube" aria-labelledby="catharticons-youtube-title" width="22.85" height="16" viewBox="0 0 22.85 16" xmlns="http://www.w3.org/2000/svg"><title id="catharticons-youtube-title">YouTube Icon</title><path d="m11.426 0s-7.1531 1.1312e-4 -8.9414 0.4707c-0.96 0.26353-1.7502 1.0544-2.0137 2.0332-0.47059 1.7882-0.4707 5.4961-0.4707 5.4961 0 0 1.1312e-4 3.7267 0.4707 5.4961 0.26353 0.97882 1.0349 1.7502 2.0137 2.0137 1.8071 0.48941 8.9414 0.49023 8.9414 0.49023s7.1531-1.13e-4 8.9414-0.4707c0.97882-0.26353 1.7502-1.0349 2.0137-2.0137 0.47059-1.7882 0.4707-5.4961 0.4707-5.4961 0 0 0.018707-3.7274-0.4707-5.5156-0.26353-0.97882-1.0349-1.7502-2.0137-2.0137-1.7882-0.48941-8.9414-0.49023-8.9414-0.49023zm-2.2773 4.5742 5.9473 3.4258-5.9473 3.4258v-6.8516z"/></svg>
