<svg xmlns="http://www.w3.org/2000/svg" width="18.17" height="16" viewBox="0 0 18.172 16" aria-labelledby="blueskeyTitle"><title id="blueskyTitle">Bluesky icon</title><path d="m 3.939007,1.0769967 c 2.083368,1.564062 4.324268,4.735327 5.147013,6.437213 0.822808,-1.70176 3.063582,-4.873183 5.147013,-6.437213 1.503249,-1.1285644 3.9389,-2.0017833 3.9389,0.776846 0,0.55493 -0.318163,4.6617 -0.504769,5.328418 -0.64864,2.317973 -3.012262,2.9091843 -5.114743,2.551356 3.675096,0.6254873 4.610005,2.6973253 2.590958,4.7691643 C 11.30881,18.437608 9.631989,13.515519 9.202132,12.2543 9.123362,12.023088 9.086509,11.914925 9.085967,12.0069 9.085422,11.91492 9.048567,12.02309 8.969802,12.2543 8.540132,13.515519 6.863342,18.437734 3.028554,14.502781 1.009476,12.430942 1.944354,10.358978 5.619512,9.7336167 3.516969,10.091445 1.153316,9.5002307 0.504769,7.1822607 0.318157,6.5154797 0,2.4087097 0,1.8538427 0,-0.9247866 2.435714,-0.0515677 3.9389,1.0769967 Z" /></svg>
