<svg xmlns="http://www.w3.org/2000/svg" width="16" height="16" viewBox="0 0 16 16" aria-labelledby="gitTitle"><title id="gitTitle">Git Icon</title><path d="m15.698 7.2874-6.9857-6.9856c-0.40212-0.40241-1.0546-0.40241-1.4573 0l-1.4505 1.4508 1.84 1.8401c0.4277-0.14441 0.91811-0.0475 1.2589 0.29335 0.34282 0.34296 0.43885 0.83759 0.29077 1.2668l1.7736 1.7734c0.42918-0.14794 0.92401-0.0523 1.2668 0.29099 0.47884 0.47871 0.47884 1.2547 0 1.7339-0.47919 0.47913-1.2551 0.47913-1.7345 0-0.36014-0.3605-0.44924-0.88974-0.26662-1.3335l-1.6542-1.6541v4.3527c0.11665 0.0578 0.22683 0.13481 0.3241 0.2318 0.47884 0.4788 0.47884 1.2548 0 1.7343-0.47884 0.47865-1.2553 0.47865-1.7338 0-0.47884-0.47953-0.47884-1.2555 0-1.7343 0.11835-0.11821 0.25541-0.20765 0.40164-0.26751v-4.3929c-0.14623-0.0599-0.28295-0.14855-0.40164-0.26758-0.36267-0.36255-0.44994-0.89493-0.2639-1.3404l-1.814-1.8143-4.7901 4.7898c-0.40232 0.40274-0.40232 1.0552 0 1.4576l6.9861 6.9856c0.40219 0.40233 1.0545 0.40233 1.4573 0l6.9531-6.9532c0.40245-0.40246 0.40245-1.0553 0-1.4576"/></svg>
