<svg xmlns="http://www.w3.org/2000/svg" width="16.439" height="16" viewBox="0 0 16.439986 16"><path d="M8.18 0C3.66 0 0 3.66 0 8.18c0 3.62 2.34 6.68 5.58 7.77.38.07.57-.2.57-.38 0-.22 0-.75 0-1.4-2.27.5-2.76-1.12-2.76-1.12-.4-.95-.9-1.14-.9-1.14-.8-.6 0-.6 0-.6.84 0 1.25.86 1.25.86.75 1.25 1.9.9 2.4.68.1-.53.28-.9.5-1.13C4.9 11.6 3 10.94 3 7.8c0-.9.27-1.62.76-2.26 0-.15-.38-.98.1-2.1 0 0 .7-.24 2.28.82C6.8 4.06 7.5 4 8.18 4c.68 0 1.4.07 2.04.26 1.62-1.06 2.26-.83 2.26-.83.5 1.13.2 1.96.1 2.15.54.6.84 1.32.84 2.26 0 3.1-1.88 3.77-3.77 4 .38.23.6.75.6 1.5 0 1.14 0 1.97 0 2.27 0 .2.2.48.6.4 3.25-1.12 5.6-4.14 5.6-7.76C16.35 3.66 12.7 0 8.17 0" opacity=".94"/></svg>