<svg xmlns="http://www.w3.org/2000/svg" width="16" height="16" viewBox="0 0 16 16"><path d="M14.7 1.32C13.88.45 12.7 0 11.33 0H4.68C1.88 0 0 1.87 0 4.68v6.6c0 1.4.45 2.6 1.35 3.46C2.23 15.58 3.4 16 4.7 16h6.6c1.38 0 2.54-.45 3.38-1.26.87-.84 1.32-2.03 1.32-3.42V4.68c0-1.36-.45-2.52-1.3-3.36zm-.12 10c0 1-.35 1.8-.93 2.36-.6.55-1.4.84-2.36.84H4.7c-.96 0-1.76-.3-2.35-.84-.58-.58-.87-1.4-.87-2.4V4.7c0-.97.3-1.78.87-2.36.55-.55 1.4-.84 2.36-.84h6.66c.97 0 1.78.3 2.36.87.56.6.88 1.4.88 2.33zm-1.35-7.58a.94.94 0 0 1-.94.94.94.94 0 0 1-.96-.94.94.94 0 0 1 .94-.93.94.94 0 0 1 .93.95zM8 3.84c-2.26 0-4.13 1.84-4.13 4.13 0 2.3 1.84 4.13 4.13 4.13 2.3 0 4.13-1.87 4.13-4.13S10.26 3.84 8 3.84zm0 6.77C6.55 10.6 5.35 9.44 5.35 8c0-1.45 1.2-2.66 2.65-2.66s2.65 1.2 2.65 2.65S9.45 10.6 8 10.6z" style="vector-effect:none"/></svg>
