<svg xmlns="http://www.w3.org/2000/svg" width="14.924455" height="16" viewBox="0 0 14.924455 16" aria-labelledby="mastodonTitle"><title id="mastodonTitle">Mastodon Icon</title><path d="m 7.4386045,0 c -2.0455103,0.01672338 -4.013023,0.2382293 -5.1596949,0.76484322 0,0 -2.27420701,1.01736858 -2.27420701,4.48824488 0,0.7947914 -0.015467,1.7450202 0.0097,2.7528193 0.082583,3.3943276 0.6223167,6.7396866 3.76062201,7.5703376 1.4470031,0.383 2.6893915,0.463166 3.689949,0.408168 1.8144862,-0.100599 2.8329684,-0.647588 2.8329684,-0.647588 l -0.05983,-1.316526 c 0,0 -1.2965919,0.408899 -2.7528185,0.359074 -1.4427793,-0.04948 -2.9658832,-0.155623 -3.1992347,-1.927008 -0.021551,-0.155597 -0.032311,-0.321918 -0.032311,-0.496651 0,0 1.4163044,0.346138 3.2112226,0.428375 1.097536,0.05034 2.1267921,-0.06433 3.1721766,-0.189069 2.004735,-0.239386 3.750285,-1.474598 3.969672,-2.6032535 0.345674,-1.7779359 0.317058,-4.3386784 0.317058,-4.3386784 0,-3.4708763 -2.273979,-4.48824488 -2.273979,-4.48824488 C 11.50332,0.2382293 9.534465,0.01672338 7.4889548,0 Z M 5.1236379,2.7119453 c 0.8520303,0 1.4973064,0.3275143 1.9239251,0.9825707 L 7.4622384,4.3897138 7.8770278,3.694516 C 8.3035599,3.0394596 8.9488366,2.7119453 9.8009527,2.7119453 c 0.7363463,0 1.3296113,0.2589529 1.7826933,0.7639299 0.439205,0.5049769 0.657864,1.1875059 0.657864,2.0464323 V 9.7250063 H 10.576529 V 5.6458424 c 0,-0.8598746 -0.361767,-1.2963174 -1.085441,-1.2963174 -0.8001361,0 -1.2012116,0.5176998 -1.2012116,1.5414462 V 8.1237334 H 6.6347143 V 5.8909712 c 0,-1.0237464 -0.4010755,-1.5414462 -1.2012116,-1.5414462 -0.7236739,0 -1.0854404,0.4364428 -1.0854404,1.2963174 V 9.7250063 H 2.682967 V 5.5223075 c 0,-0.8589264 0.2186872,-1.5414554 0.6579776,-2.0464323 0.4529966,-0.504977 1.0462613,-0.7639299 1.7826933,-0.7639299 z" /></svg>
