<svg version="1.1" viewBox="0 0 16.4 16" width="16.4" height="16" aria-labelledby="pdfTitle" xmlns="http://www.w3.org/2000/svg"><title title="pdfIconTitle">PDF Icon</title><path d="m13.2 9.26c-0.759-0.807-2.86-0.479-3.35-0.397-0.725-0.704-1.23-1.54-1.4-1.85 0.274-0.779 0.451-1.61 0.479-2.42 0-0.738-0.294-1.53-1.11-1.53-0.287 7e-3 -0.547 0.164-0.691 0.403-0.349 0.602-0.212 1.85 0.349 3.1-0.328 0.923-0.8 2.26-1.42 3.34-0.841 0.335-2.63 1.16-2.8 2.06-0.0547 0.267 0.041 0.54 0.246 0.725 0.198 0.178 0.458 0.267 0.725 0.26 1.07 0 2.15-1.49 2.87-2.77 0.609-0.212 1.58-0.492 2.56-0.67 1.14 0.991 2.15 1.14 2.66 1.14 0.697 0 0.957-0.301 1.05-0.554 0.103-0.287 0.041-0.615-0.164-0.848zm-0.738 0.52c-0.0342 0.198-0.287 0.397-0.759 0.294-0.547-0.137-1.06-0.397-1.49-0.752 0.369-0.0615 1.23-0.144 1.84-0.0273 0.219 0.041 0.472 0.164 0.41 0.485zm-4.9-6.05c0.0479-0.0889 0.137-0.15 0.239-0.15 0.26 0 0.315 0.315 0.315 0.574-0.0342 0.622-0.171 1.26-0.342 1.83-0.438-1.16-0.376-1.97-0.212-2.25zm-0.0615 5.68c0.232-0.458 0.561-1.29 0.677-1.63 0.26 0.431 0.697 0.971 0.93 1.22 7e-3 -7e-3 -0.889 0.178-1.61 0.41zm-1.72 1.18c-0.691 1.11-1.37 1.81-1.76 1.81-0.0615 0-0.13-0.0205-0.178-0.0615-0.0752-0.0615-0.109-0.157-0.0889-0.253 0.0752-0.397 0.862-0.971 2.03-1.49zm-2.88-10.6h10.6c1.61 0 2.91 1.3 2.91 2.91v10.2c0 1.61-1.3 2.91-2.91 2.91h-10.6c-1.61 0-2.91-1.3-2.91-2.91v-10.2c0-1.61 1.3-2.91 2.91-2.91z"/></svg>
