<svg viewBox="0 0 16 16" width="16" height="16" aria-labelledby="philPeopleTitle" xmlns="http://www.w3.org/2000/svg"><title id="philPeopleTitle">PhilPeople Icon</title><path id="philPeopleLogo" d="m2.7 0.851a2.07 2.07 0 0 0-0.834-0.753 2.33 2.33 0 0 0-0.239-0.0982h-1.62v16h2.13a2.22 2.22 0 0 0 0.305-0.264 2.04 2.04 0 0 0 0.541-1.02q0.138-0.619 0.138-1.92v-9.31a11.2 11.2 0 0 0-0.0944-1.67 2.59 2.59 0 0 0-0.32-0.954zm9.2-0.851a4.34 4.34 0 0 1 0.861 0.522q1.79 1.36 1.79 3.64 0 2.31-1.82 3.39-0.948 0.556-2.3 0.67-0.429 0.0387-2.07 0.0379h-2.48v4.54q0 1.29 0.145 1.91a2.14 2.14 0 0 0 0.537 1.03 2.22 2.22 0 0 0 0.309 0.264h9.13v-16zm-2.85 7.67a2.84 2.84 0 0 0 1.21-0.676q1.24-1.12 1.24-2.99a4.89 4.89 0 0 0-0.36-1.9 3.52 3.52 0 0 0-1.03-1.41 3.27 3.27 0 0 0-1.4-0.686h-2.82v7.85h1.24q1.25 0 1.93-0.183z"/></svg>
