<svg version="1.1" width="16" height="16" viewBox="0 0 16 16" xmlns="http://www.w3.org/2000/svg" aria-labelledby="phoneTitle"><title>Phone Icon</title><path d="m3.211 6.932c1.2699 2.5023 3.3539 4.5816 5.8607 5.8479 0.68635-0.67837 1.3561-1.3745 2.0529-2.0417 0.61656-0.43461 1.3055 0.123 1.9566 0.17046 0.77754 0.19659 1.5928 0.13886 2.3718 0.27109 0.70949 0.29535 0.51441 1.1164 0.54214 1.7229-0.01065 0.79432 0.02215 1.5908-0.01797 2.3837-0.21971 0.94402-1.3214 0.68839-2.0347 0.66438-4.7256-0.32336-9.1905-3.0452-11.671-7.0693-1.5141-2.4274-2.3465-5.3006-2.266-8.1636 0.1179-0.68416 0.85473-0.74908 1.4145-0.7084 0.91617 0.01092 1.8346-0.0225 2.7492 0.01794 0.98071 0.23263 0.62675 1.3705 0.78304 2.0969 0.06739 0.74469 0.30543 1.4583 0.4749 2.1794-0.0038 0.6516-0.6529 0.98299-1.0261 1.4347-0.39663 0.39787-0.79326 0.79574-1.1899 1.1936z"/></svg>
