<svg xmlns="http://www.w3.org/2000/svg" width="19.691" height="16" viewBox="0 0 19.691057 16.000006"><path d="M6.2 16c7.42 0 11.5-6.16 11.5-11.5 0-.17 0-.34-.02-.52a8.22 8.22 0 0 0 2-2.1 8.06 8.06 0 0 1-2.3.65A4.05 4.05 0 0 0 19.14.3a8.1 8.1 0 0 1-2.57.97 4.04 4.04 0 0 0-6.88 3.7A11.47 11.47 0 0 1 1.34.73a4.04 4.04 0 0 0 1.25 5.4A4 4 0 0 1 .8 5.6c0 .02 0 .04 0 .06a4.04 4.04 0 0 0 3.23 3.96 4.03 4.03 0 0 1-1.83.07 4.04 4.04 0 0 0 3.78 2.8 8.1 8.1 0 0 1-5.02 1.7 8.22 8.22 0 0 1-.96 0A11.44 11.44 0 0 0 6.2 16"/></svg>