<svg version="1.1" viewBox="0 0 22.852 16" xml:space="preserve" xmlns="http://www.w3.org/2000/svg"><g transform="translate(0,-34)"><path class="st0" d="m22.381 36.504c-0.26353-0.97882-1.0353-1.7506-2.0141-2.0141-1.7882-0.48941-8.9412-0.48941-8.9412-0.48941s-7.1529 0-8.9412 0.47059c-0.96 0.26353-1.7506 1.0541-2.0141 2.0329-0.47059 1.7882-0.47059 5.4965-0.47059 5.4965s0 3.7271 0.47059 5.4965c0.26353 0.97882 1.0353 1.7506 2.0141 2.0141 1.8071 0.48941 8.9412 0.48941 8.9412 0.48941s7.1529 0 8.9412-0.47059c0.97882-0.26353 1.7506-1.0353 2.0141-2.0141 0.47059-1.7882 0.47059-5.4965 0.47059-5.4965s0.01882-3.7271-0.47059-5.5153z"/><path d="m15.096 42-5.9482-3.4259v6.8518z" fill="#fff"/></g></svg>
